<?xml version="1.0" encoding="utf-8"?>
<!-- Generator: Adobe Illustrator 26.3.1, SVG Export Plug-In . SVG Version: 6.00 Build 0)  -->
<svg version="1.1" id="Calque_1" xmlns="http://www.w3.org/2000/svg" xmlns:xlink="http://www.w3.org/1999/xlink" x="0px" y="0px"
	 viewBox="0 0 1079.83 350.1" style="enable-background:new 0 0 1079.83 350.1;" xml:space="preserve">
<style type="text/css">
	.st0{fill:#FFFFFF;}
</style>
<g>
	<path class="st0" d="M1050.71,0H808.78l-29,29v152.89l28.31,28.31h191.66v69.82H859.86v-40.04h-80.08v80.9l29.2,29.21h240.97
		l29.87-29.87V29.12L1050.71,0z M999.76,140.14H859.86V70.07h139.89V140.14z"/>
</g>
<g>
	<polygon class="st0" points="639.65,0 639.65,70.07 679.69,70.07 679.69,350.1 759.52,350.1 759.52,29.01 730.51,0 	"/>
</g>
<g>
	<path class="st0" d="M24.9,0c-7,0-12.94,2.44-17.82,7.32C2.36,12.21,0,18.15,0,25.15v84.96h80.08V70.07h139.89v43.46L21,246.09
		c-5.37,3.74-10.25,9.85-14.65,18.31C2.12,272.87,0,279.79,0,285.16v64.94h300.05v-70.07H104.98l174.07-115.97
		c5.7-3.58,10.58-9.2,14.65-16.85c4.23-7.81,6.35-15.22,6.35-22.22V28.97L271.08,0H24.9z"/>
</g>
<g>
	<path class="st0" d="M344.73,0c-7,0-12.94,2.44-17.82,7.32c-4.72,4.88-7.08,10.82-7.08,17.82v84.96h80.08V70.07h139.89v43.46
		L340.82,246.09c-5.37,3.74-10.25,9.85-14.65,18.31c-4.23,8.46-6.35,15.38-6.35,20.75v64.94h300.05v-70.07H424.81l174.07-115.97
		c5.7-3.58,10.58-9.2,14.65-16.85c4.23-7.81,6.35-15.22,6.35-22.22V28.99L590.89,0H344.73z"/>
</g>
</svg>
