<?xml version="1.0" encoding="utf-8"?>
<!-- Generator: Adobe Illustrator 24.3.0, SVG Export Plug-In . SVG Version: 6.00 Build 0)  -->
<svg version="1.1" id="Layer_1" xmlns="http://www.w3.org/2000/svg" xmlns:xlink="http://www.w3.org/1999/xlink" x="0px" y="0px"
	 viewBox="0 0 1103 358" style="enable-background:new 0 0 1103 358;" xml:space="preserve">
<path d="M1073.3,0H826.1l-29.6,29.7V186l28.9,28.9h195.8v71.4H878.3v-40.9h-81.8v82.7l29.8,29.9h246.1l30.5-30.5V29.8L1073.3,0z
	 M1021.2,143.3H878.3V71.7h142.9L1021.2,143.3L1021.2,143.3z M653.4,0v71.7h40.9V358h81.5V29.7L746.2,0H653.4z M25.4,0C18.3,0,12.2,2.5,7.2,7.5C2.4,12.5,0,18.6,0,25.7v86.9h81.8V71.7h142.9v44.4L21.5,251.6c-5.5,3.8-10.5,10.1-15,18.7
	C2.2,279,0,286.1,0,291.6V358h306.5v-71.7H107.2L285,167.8c5.8-3.7,10.8-9.4,15-17.2c4.3-8,6.5-15.6,6.5-22.7V29.6L276.9,0H25.4z M352.1,0c-7.2,0-13.2,2.5-18.2,7.5c-4.8,5-7.2,11.1-7.2,18.2v86.9h81.8V71.7h142.9v44.4L348.1,251.6
	c-5.5,3.8-10.5,10.1-15,18.7c-4.3,8.7-6.5,15.7-6.5,21.2V358h306.5v-71.7H433.9l177.8-118.6c5.8-3.7,10.8-9.4,15-17.2
	c4.3-8,6.5-15.6,6.5-22.7V29.6L603.6,0H352.1z"/>
</svg>
