<svg width="1080" height="351" viewBox="0 0 1080 351" fill="none" xmlns="http://www.w3.org/2000/svg" ><path d="M300.049 125C300.049 131.999 297.933 139.404 293.701 147.217C289.632 154.867 284.749 160.482 279.053 164.062L104.98 280.029H300.049V350.098H0V285.156C0 279.785 2.11589 272.868 6.34766 264.404C10.7422 255.941 15.625 249.837 20.9961 246.094L219.971 113.525V70.0684H80.0781V110.107H0V25.1465C0 18.1478 2.36003 12.207 7.08008 7.32422C11.9629 2.44141 17.9036 0 24.9023 0H274.902C281.901 0 287.842 2.44141 292.725 7.32422C297.607 12.207 300.049 18.1478 300.049 25.1465V125Z M619.873 125C619.873 131.999 617.757 139.404 613.525 147.217C609.456 154.867 604.574 160.482 598.877 164.062L424.805 280.029H619.873V350.098H319.824V285.156C319.824 279.785 321.94 272.868 326.172 264.404C330.566 255.941 335.449 249.837 340.82 246.094L539.795 113.525V70.0684H399.902V110.107H319.824V25.1465C319.824 18.1478 322.184 12.207 326.904 7.32422C331.787 2.44141 337.728 0 344.727 0H594.727C601.725 0 607.666 2.44141 612.549 7.32422C617.432 12.207 619.873 18.1478 619.873 25.1465V125Z M679.688 350.098V70.0684H639.648V0H734.619C741.618 0 747.477 2.44141 752.197 7.32422C757.08 12.207 759.521 18.1478 759.521 25.1465V350.098H679.688Z M1054.69 350.098H804.688C797.689 350.098 791.748 347.738 786.865 343.018C782.145 338.135 779.785 332.194 779.785 325.195V239.99H859.863V280.029H999.756V210.205H804.688C797.689 210.205 791.748 207.764 786.865 202.881C782.145 197.998 779.785 192.057 779.785 185.059V25.1465C779.785 18.4733 782.145 12.6139 786.865 7.56836C791.748 2.52279 797.689 0 804.688 0H1054.69C1061.36 0 1067.22 2.52279 1072.27 7.56836C1077.31 12.6139 1079.83 18.4733 1079.83 25.1465V325.195C1079.83 332.194 1077.31 338.135 1072.27 343.018C1067.22 347.738 1061.36 350.098 1054.69 350.098ZM999.756 140.137V70.0684H859.863V140.137H999.756Z" /></svg>